<svg width="88" height="88" viewBox="0 0 88 88" fill="none" xmlns="http://www.w3.org/2000/svg">
<path d="M64.0664 25.5664L67.9336 29.4336L35.75 61.6172L20.0664 45.9336L23.9336 42.0664L35.75 53.8828L64.0664 25.5664ZM44 0C48.0391 0 51.9349 0.515625 55.6875 1.54688C59.4401 2.57812 62.9492 4.05339 66.2148 5.97266C69.4805 7.89193 72.4453 10.1836 75.1094 12.8477C77.7734 15.5117 80.0651 18.4909 81.9844 21.7852C83.9036 25.0794 85.3789 28.5885 86.4102 32.3125C87.4414 36.0365 87.9714 39.9323 88 44C88 48.0391 87.4844 51.9349 86.4531 55.6875C85.4219 59.4401 83.9466 62.9492 82.0273 66.2148C80.1081 69.4805 77.8164 72.4453 75.1523 75.1094C72.4883 77.7734 69.5091 80.0651 66.2148 81.9844C62.9206 83.9036 59.4115 85.3789 55.6875 86.4102C51.9635 87.4414 48.0677 87.9714 44 88C39.9609 88 36.0651 87.4844 32.3125 86.4531C28.5599 85.4219 25.0508 83.9466 21.7852 82.0273C18.5195 80.1081 15.5547 77.8164 12.8906 75.1523C10.2266 72.4883 7.9349 69.5091 6.01562 66.2148C4.09635 62.9206 2.62109 59.4258 1.58984 55.7305C0.558594 52.0352 0.0286458 48.125 0 44C0 39.9609 0.515625 36.0651 1.54688 32.3125C2.57812 28.5599 4.05339 25.0508 5.97266 21.7852C7.89193 18.5195 10.1836 15.5547 12.8477 12.8906C15.5117 10.2266 18.4909 7.9349 21.7852 6.01562C25.0794 4.09635 28.5742 2.62109 32.2695 1.58984C35.9648 0.558594 39.875 0.0286458 44 0ZM44 82.5C47.5234 82.5 50.918 82.0417 54.1836 81.125C57.4492 80.2083 60.5143 78.9193 63.3789 77.2578C66.2435 75.5964 68.8503 73.5768 71.1992 71.1992C73.5482 68.8216 75.5534 66.2292 77.2148 63.4219C78.8763 60.6146 80.1797 57.5495 81.125 54.2266C82.0703 50.9036 82.5286 47.4948 82.5 44C82.5 40.4766 82.0417 37.082 81.125 33.8164C80.2083 30.5508 78.9193 27.4857 77.2578 24.6211C75.5964 21.7565 73.5768 19.1497 71.1992 16.8008C68.8216 14.4518 66.2292 12.4466 63.4219 10.7852C60.6146 9.1237 57.5495 7.82031 54.2266 6.875C50.9036 5.92969 47.4948 5.47135 44 5.5C40.4766 5.5 37.082 5.95833 33.8164 6.875C30.5508 7.79167 27.4857 9.08073 24.6211 10.7422C21.7565 12.4036 19.1497 14.4232 16.8008 16.8008C14.4518 19.1784 12.4466 21.7708 10.7852 24.5781C9.1237 27.3854 7.82031 30.4505 6.875 33.7734C5.92969 37.0964 5.47135 40.5052 5.5 44C5.5 47.5234 5.95833 50.918 6.875 54.1836C7.79167 57.4492 9.08073 60.5143 10.7422 63.3789C12.4036 66.2435 14.4232 68.8503 16.8008 71.1992C19.1784 73.5482 21.7708 75.5534 24.5781 77.2148C27.3854 78.8763 30.4505 80.1797 33.7734 81.125C37.0964 82.0703 40.5052 82.5286 44 82.5Z" fill="#A8FF90"/>
</svg>
