<svg width="27" height="27" viewBox="0 0 27 27" fill="none" xmlns="http://www.w3.org/2000/svg">
<path d="M16.0185 0.170656C18.4585 0.169491 20.8251 1.00488 22.7236 2.53749C24.6222 4.0701 25.9379 6.20729 26.4514 8.59261C26.9649 10.9779 26.645 13.4672 25.5452 15.6452C24.4454 17.8233 22.6322 19.5584 20.4078 20.5613C19.6969 22.1332 18.6152 23.5092 17.2557 24.5712C15.8961 25.6333 14.2993 26.3497 12.602 26.6591C10.9048 26.9685 9.15784 26.8616 7.51099 26.3476C5.86415 25.8335 4.36656 24.9277 3.14666 23.7078C1.92676 22.4879 1.02095 20.9903 0.506927 19.3435C-0.00709689 17.6967 -0.114 15.9497 0.195386 14.2525C0.504772 12.5552 1.22121 10.9584 2.28327 9.59884C3.34532 8.2393 4.72129 7.15765 6.29317 6.44665C7.13829 4.57554 8.50545 2.98808 10.2306 1.87483C11.9557 0.761574 13.9654 0.169841 16.0185 0.170656ZM12.0185 9.50399H9.35184V10.8373C8.48533 10.8352 7.65204 11.1706 7.02862 11.7724C6.40519 12.3743 6.04063 13.1952 6.01219 14.0613C5.98376 14.9273 6.29369 15.7704 6.8763 16.4118C7.4589 17.0532 8.26839 17.4426 9.13317 17.4973L9.35184 17.504H12.0185L12.1385 17.5147C12.2922 17.5425 12.4313 17.6234 12.5314 17.7433C12.6315 17.8632 12.6864 18.0144 12.6864 18.1707C12.6864 18.3269 12.6315 18.4781 12.5314 18.598C12.4313 18.7179 12.2922 18.7988 12.1385 18.8267L12.0185 18.8373H6.68517V21.504H9.35184V22.8373H12.0185V21.504C12.885 21.5061 13.7183 21.1707 14.3417 20.5689C14.9652 19.967 15.3297 19.1461 15.3582 18.28C15.3866 17.414 15.0767 16.5709 14.4941 15.9295C13.9114 15.2881 13.102 14.8987 12.2372 14.844L12.0185 14.8373H9.35184L9.23184 14.8267C9.07813 14.7988 8.93907 14.7179 8.83894 14.598C8.73881 14.4781 8.68395 14.3269 8.68395 14.1707C8.68395 14.0144 8.73881 13.8632 8.83894 13.7433C8.93907 13.6234 9.07813 13.5425 9.23184 13.5147L9.35184 13.504H14.6852V10.8373H12.0185V9.50399ZM16.0185 2.83732C14.8887 2.83708 13.7717 3.07614 12.741 3.53876C11.7103 4.00137 10.7892 4.67705 10.0385 5.52132C11.5455 5.42984 13.0548 5.65931 14.4665 6.19458C15.8782 6.72985 17.1602 7.55871 18.2278 8.62636C19.2953 9.69401 20.124 10.9761 20.6591 12.3879C21.1942 13.7997 21.4235 15.309 21.3318 16.816C22.5441 15.7382 23.4001 14.3173 23.7863 12.7417C24.1724 11.1662 24.0705 9.51054 23.494 7.99428C22.9175 6.47803 21.8937 5.17284 20.5584 4.25183C19.2231 3.33082 17.6393 2.83751 16.0172 2.83732" fill="#E7C54C"/>
</svg>
