<svg width="25" height="29" viewBox="0 0 25 29" fill="none" xmlns="http://www.w3.org/2000/svg">
<path d="M15.5834 14.5V26.6483C15.6451 27.1108 15.4909 27.6042 15.1363 27.9279C14.9937 28.0708 14.8243 28.1842 14.6378 28.2616C14.4513 28.3389 14.2514 28.3788 14.0495 28.3788C13.8475 28.3788 13.6476 28.3389 13.4611 28.2616C13.2746 28.1842 13.1052 28.0708 12.9626 27.9279L9.86383 24.8292C9.69578 24.6647 9.568 24.4637 9.49045 24.2417C9.4129 24.0198 9.38768 23.7829 9.41675 23.5496V14.5H9.3705L0.490497 3.1225C0.240143 2.80111 0.127178 2.39369 0.176286 1.98927C0.225395 1.58484 0.432584 1.2163 0.75258 0.964167C1.0455 0.748333 1.36925 0.625 1.70841 0.625H23.2917C23.6309 0.625 23.9547 0.748333 24.2476 0.964167C24.5676 1.2163 24.7748 1.58484 24.8239 1.98927C24.873 2.39369 24.76 2.80111 24.5097 3.1225L15.6297 14.5H15.5834Z" fill="#212B48"/>
</svg>
