<svg width="36" height="42" viewBox="0 0 36 42" fill="none" xmlns="http://www.w3.org/2000/svg">
<path d="M14.1667 37.25H21.8333C21.8333 39.3583 20.1083 41.0833 18 41.0833C15.8917 41.0833 14.1667 39.3583 14.1667 37.25ZM35.25 33.4167V35.3333H0.75V33.4167L4.58333 29.5833V18.0833C4.58333 12.1417 8.41667 6.96667 14.1667 5.24167V4.66667C14.1667 2.55833 15.8917 0.833332 18 0.833332C20.1083 0.833332 21.8333 2.55833 21.8333 4.66667V5.24167C27.5833 6.96667 31.4167 12.1417 31.4167 18.0833V29.5833L35.25 33.4167ZM27.5833 18.0833C27.5833 12.7167 23.3667 8.5 18 8.5C12.6333 8.5 8.41667 12.7167 8.41667 18.0833V31.5H27.5833V18.0833Z" fill="black"/>
</svg>
