<svg width="77" height="77" viewBox="0 0 77 77" fill="none" xmlns="http://www.w3.org/2000/svg">
<path d="M38.4997 69.6249C42.5871 69.6249 46.6344 68.8199 50.4107 67.2557C54.187 65.6915 57.6181 63.3988 60.5084 60.5086C63.3986 57.6184 65.6913 54.1872 67.2554 50.4109C68.8196 46.6347 69.6247 42.5873 69.6247 38.4999C69.6247 34.4125 68.8196 30.3652 67.2554 26.5889C65.6913 22.8126 63.3986 19.3814 60.5084 16.4912C57.6181 13.601 54.187 11.3083 50.4107 9.74417C46.6344 8.17999 42.5871 7.37492 38.4997 7.37492C30.2448 7.37492 22.328 10.6542 16.491 16.4912C10.6539 22.3283 7.37468 30.2451 7.37468 38.4999C7.37468 46.7548 10.6539 54.6715 16.491 60.5086C22.328 66.3457 30.2448 69.6249 38.4997 69.6249ZM76.5413 38.4999C76.5413 59.5093 59.5091 76.5416 38.4997 76.5416C17.4903 76.5416 0.458008 59.5093 0.458008 38.4999C0.458008 17.4905 17.4903 0.458252 38.4997 0.458252C59.5091 0.458252 76.5413 17.4905 76.5413 38.4999ZM48.8747 53.765L35.0413 39.9317V16.0208H41.958V37.0682L53.7648 48.8749L48.8747 53.765Z" fill="#E9FF98"/>
</svg>
