<svg width="55" height="55" viewBox="0 0 55 55" fill="none" xmlns="http://www.w3.org/2000/svg">
<path fill-rule="evenodd" clip-rule="evenodd" d="M37.5 19.9998C37.5 22.6519 36.4464 25.1955 34.5711 27.0708C32.6957 28.9462 30.1522 29.9998 27.5 29.9998C24.8478 29.9998 22.3043 28.9462 20.4289 27.0708C18.5536 25.1955 17.5 22.6519 17.5 19.9998C17.5 17.3476 18.5536 14.8041 20.4289 12.9287C22.3043 11.0533 24.8478 9.99976 27.5 9.99976C30.1522 9.99976 32.6957 11.0533 34.5711 12.9287C36.4464 14.8041 37.5 17.3476 37.5 19.9998ZM32.5 19.9998C32.5 21.3258 31.9732 22.5976 31.0355 23.5353C30.0979 24.473 28.8261 24.9998 27.5 24.9998C26.1739 24.9998 24.9021 24.473 23.9645 23.5353C23.0268 22.5976 22.5 21.3258 22.5 19.9998C22.5 18.6737 23.0268 17.4019 23.9645 16.4642C24.9021 15.5265 26.1739 14.9998 27.5 14.9998C28.8261 14.9998 30.0979 15.5265 31.0355 16.4642C31.9732 17.4019 32.5 18.6737 32.5 19.9998Z" fill="#212B48"/>
<path fill-rule="evenodd" clip-rule="evenodd" d="M27.5 0C12.3125 0 0 12.3125 0 27.5C0 42.6875 12.3125 55 27.5 55C42.6875 55 55 42.6875 55 27.5C55 12.3125 42.6875 0 27.5 0ZM5 27.5C5 32.725 6.7825 37.535 9.77 41.355C11.8686 38.6003 14.5754 36.3678 17.6791 34.8318C20.7828 33.2958 24.1995 32.4978 27.6625 32.5C31.0809 32.496 34.4552 33.2727 37.5278 34.7709C40.6005 36.2691 43.2904 38.4492 45.3925 41.145C47.5586 38.304 49.0171 34.988 49.6472 31.4715C50.2774 27.9549 50.0611 24.3388 49.0162 20.9225C47.9714 17.5061 46.1281 14.3876 43.6387 11.8251C41.1494 9.26257 38.0856 7.32965 34.701 6.18627C31.3163 5.04289 27.708 4.72193 24.1747 5.24993C20.6413 5.77794 17.2845 7.13973 14.3819 9.22263C11.4794 11.3055 9.11453 14.0497 7.48307 17.228C5.85162 20.4063 5.00045 23.9274 5 27.5ZM27.5 50C22.3348 50.0084 17.3254 48.2314 13.32 44.97C14.932 42.6615 17.078 40.7768 19.5752 39.4761C22.0724 38.1755 24.8469 37.4976 27.6625 37.5C30.4429 37.4976 33.1838 38.1586 35.6575 39.4283C38.1311 40.6979 40.2661 42.5395 41.885 44.8C37.8487 48.1675 32.7566 50.0082 27.5 50Z" fill="#212B48"/>
</svg>
