<svg width="84" height="84" viewBox="0 0 84 84" fill="none" xmlns="http://www.w3.org/2000/svg">
<path d="M42 0.75C19.218 0.75 0.75 19.218 0.75 42C0.75 64.782 19.218 83.25 42 83.25C64.782 83.25 83.25 64.782 83.25 42C83.25 19.218 64.782 0.75 42 0.75ZM42 11.0625C59.0861 11.0625 72.9375 24.9139 72.9375 42C72.9375 59.0861 59.0861 72.9375 42 72.9375C24.9139 72.9375 11.0625 59.0861 11.0625 42C11.0625 24.9139 24.9139 11.0625 42 11.0625ZM28.1426 21.375C27.9759 21.3741 27.7978 21.3943 27.6161 21.4288V21.4233C24.4713 22.0139 19.8364 27.3947 21.8798 29.4371L34.4537 42.0055L21.88 54.574C19.3654 57.0877 26.9116 64.6346 29.4263 62.1204L42 49.5463L54.5737 62.12C57.0882 64.6342 64.6347 57.0875 62.12 54.5737L49.5463 42.0053L62.12 29.4371C64.6346 26.9235 57.0884 19.3825 54.5737 21.8961L42 34.4645L29.4263 21.8961C29.0722 21.5445 28.6426 21.3779 28.1424 21.3753L28.1426 21.375Z" fill="#F05D5D"/>
</svg>
